# xmcd
# Track frame offsets:
# 150
# 9905
# 24600
# 40496
# 53094
# 68828
# 82874
# 96472
# 116968
# 128807
#
# Disc length: 1923 seconds
# Revision: 0
# Processed by: cddbd v1.5.1PL0 Copyright (c) Steve Scherf et al.
# Submitted via: VisiTrax 2.9.10.228 - For more info visit www.synapsa.com
#
DISCID=8007810a
DTITLE=Joe Bonson and Coffe Run - Love train
DYEAR=2005
DGENRE=
TTITLE0=Mama tried
TTITLE1=Jesus and bartenders
TTITLE2=Love train
TTITLE3=I wouldn't change you if I could
TTITLE4=All my bridges but one
TTITLE5=All I have to offer you is me
TTITLE6=Just as long as you love me
TTITLE7=Dreams
TTITLE8=Hey good lookin'
TTITLE9=More than just a man
EXTD=
EXTT0=
EXTT1=
EXTT2=
EXTT3=
EXTT4=
EXTT5=
EXTT6=
EXTT7=
EXTT8=
EXTT9=
PLAYORDER=
